<svg xmlns="http://www.w3.org/2000/svg" viewBox="0 0 300 80"><style>.st1{fill:none;stroke:#29abe2;stroke-width:4;stroke-miterlimit:10}</style><path d="M69 65.3h-4.7V13.6H69v51.7zm21.3-51.7l20.4 45.6 20.5-45.6h6.2v51.7h-4.7V42.8l.4-23.1-20.6 45.6h-3.6L88.4 19.9l.4 22.8v22.7h-4.7V13.6h6.2zm66.9 51.7h-4.7V13.6h4.7v51.7zm51.5-48h-19v48H185v-48h-19v-3.7h42.6v3.7zm12.5 27H203v-3.6h18.2v3.6zm15 21h-4.7V13.6h4.7v51.7zm55.9-23.1c0 4.8-.9 8.9-2.6 12.5-1.8 3.6-4.3 6.4-7.6 8.3-3.3 1.9-7.1 2.9-11.3 2.9-6.5 0-11.7-2.2-15.7-6.5s-6-10.2-6-17.5v-5.3c0-4.7.9-8.9 2.7-12.5 1.8-3.6 4.3-6.4 7.6-8.4s7-2.9 11.3-2.9c4.3 0 8 1 11.3 2.9 3.3 1.9 5.8 4.6 7.6 8.1 1.8 3.5 2.7 7.6 2.8 12.2v6.2zm-4.6-5.6c0-6.2-1.5-11.1-4.5-14.6s-7.2-5.3-12.4-5.3-9.3 1.8-12.3 5.3c-3.1 3.5-4.6 8.5-4.6 14.8v5.4c0 6.1 1.5 11 4.6 14.6 3 3.6 7.2 5.4 12.4 5.4 5.3 0 9.4-1.8 12.4-5.3s4.5-8.5 4.5-14.8v-5.5z" fill="#29abe2"/><circle class="st1" cx="30" cy="39" r="24"/><path class="st1" d="M28.1 20v23M27 41h23"/></svg>